<svg width="3300" height="2200" viewBox="0 0 3300 2200" fill="none" xmlns="http://www.w3.org/2000/svg">
<g id="events3" clip-path="url(#clip0_1_12882)">
<g id="Notes">
<path id="artboard" d="M3300 0H0V2200H3300V0Z" fill="white"/>
<path id="Vector" d="M263 292H3036" stroke="black" stroke-width="0.5"/>
<text id="Weight/Scale Variations" fill="black" xml:space="preserve" style="white-space: pre" font-family="Inter" font-size="13" font-weight="bold" letter-spacing="0em"><tspan x="263" y="321.727">Weight/Scale Variations</tspan></text>
<text id="Ultralight" fill="black" xml:space="preserve" style="white-space: pre" font-family="Inter" font-size="13" letter-spacing="0em"><tspan x="531.211" y="321.727">Ultralight</tspan></text>
<text id="Thin" fill="black" xml:space="preserve" style="white-space: pre" font-family="Inter" font-size="13" letter-spacing="0em"><tspan x="842.922" y="321.727">Thin</tspan></text>
<text id="Light" fill="black" xml:space="preserve" style="white-space: pre" font-family="Inter" font-size="13" letter-spacing="0em"><tspan x="1137.63" y="321.727">Light</tspan></text>
<text id="Regular" fill="black" xml:space="preserve" style="white-space: pre" font-family="Inter" font-size="13" letter-spacing="0em"><tspan x="1426.34" y="321.727">Regular</tspan></text>
<text id="Medium" fill="black" xml:space="preserve" style="white-space: pre" font-family="Inter" font-size="13" letter-spacing="0em"><tspan x="1721.56" y="321.727">Medium</tspan></text>
<text id="Semibold" fill="black" xml:space="preserve" style="white-space: pre" font-family="Inter" font-size="13" letter-spacing="0em"><tspan x="2014.27" y="321.727">Semibold</tspan></text>
<text id="Bold" fill="black" xml:space="preserve" style="white-space: pre" font-family="Inter" font-size="13" letter-spacing="0em"><tspan x="2325.98" y="321.727">Bold</tspan></text>
<text id="Heavy" fill="black" xml:space="preserve" style="white-space: pre" font-family="Inter" font-size="13" letter-spacing="0em"><tspan x="2617.19" y="321.727">Heavy</tspan></text>
<text id="Black" fill="black" xml:space="preserve" style="white-space: pre" font-family="Inter" font-size="13" letter-spacing="0em"><tspan x="2916.4" y="321.727">Black</tspan></text>
<path id="Vector_2" d="M263 1903H3036" stroke="black" stroke-width="0.5"/>
<g id="Group">
<path id="Vector_3" d="M272.248 1933.83C276.555 1933.83 280.139 1930.26 280.139 1925.95C280.139 1921.64 276.545 1918.07 272.238 1918.07C267.941 1918.07 264.367 1921.64 264.367 1925.95C264.367 1930.26 267.951 1933.83 272.248 1933.83ZM272.248 1932.35C268.703 1932.35 265.871 1929.5 265.871 1925.95C265.871 1922.39 268.693 1919.55 272.238 1919.55C275.793 1919.55 278.645 1922.39 278.645 1925.95C278.645 1929.5 275.803 1932.35 272.248 1932.35ZM268.654 1925.95C268.654 1926.38 268.957 1926.67 269.406 1926.67H271.506V1928.79C271.506 1929.23 271.799 1929.53 272.229 1929.53C272.678 1929.53 272.971 1929.23 272.971 1928.79V1926.67H275.09C275.529 1926.67 275.832 1926.38 275.832 1925.95C275.832 1925.51 275.529 1925.21 275.09 1925.21H272.971V1923.1C272.971 1922.65 272.678 1922.35 272.229 1922.35C271.799 1922.35 271.506 1922.65 271.506 1923.1V1925.21H269.406C268.957 1925.21 268.654 1925.51 268.654 1925.95Z" fill="black"/>
</g>
<g id="Group_2">
<path id="Vector_4" d="M293.215 1935.91C298.664 1935.91 303.176 1931.39 303.176 1925.95C303.176 1920.5 298.654 1915.99 293.205 1915.99C287.766 1915.99 283.254 1920.5 283.254 1925.95C283.254 1931.39 287.776 1935.91 293.215 1935.91ZM293.215 1934.25C288.606 1934.25 284.924 1930.56 284.924 1925.95C284.924 1921.34 288.596 1917.65 293.205 1917.65C297.815 1917.65 301.516 1921.34 301.516 1925.95C301.516 1930.56 297.824 1934.25 293.215 1934.25ZM288.684 1925.95C288.684 1926.43 289.016 1926.75 289.514 1926.75H292.385V1929.63C292.385 1930.12 292.717 1930.46 293.195 1930.46C293.684 1930.46 294.026 1930.13 294.026 1929.63V1926.75H296.906C297.395 1926.75 297.736 1926.43 297.736 1925.95C297.736 1925.46 297.395 1925.12 296.906 1925.12H294.026V1922.25C294.026 1921.75 293.684 1921.41 293.195 1921.41C292.717 1921.41 292.385 1921.75 292.385 1922.25V1925.12H289.514C289.016 1925.12 288.684 1925.46 288.684 1925.95Z" fill="black"/>
</g>
<g id="Group_3">
<path id="Vector_5" d="M319.895 1938.66C326.858 1938.66 332.619 1932.9 332.619 1925.95C332.619 1918.99 326.848 1913.22 319.885 1913.22C312.932 1913.22 307.18 1918.99 307.18 1925.95C307.18 1932.9 312.942 1938.66 319.895 1938.66ZM319.895 1936.85C313.86 1936.85 309.006 1931.98 309.006 1925.95C309.006 1919.9 313.85 1915.05 319.885 1915.05C325.93 1915.05 330.793 1919.9 330.793 1925.95C330.793 1931.98 325.94 1936.85 319.895 1936.85ZM314.123 1925.95C314.123 1926.47 314.494 1926.83 315.041 1926.83H318.986V1930.78C318.986 1931.32 319.358 1931.7 319.875 1931.7C320.412 1931.7 320.783 1931.33 320.783 1930.78V1926.83H324.738C325.276 1926.83 325.656 1926.47 325.656 1925.95C325.656 1925.4 325.285 1925.03 324.738 1925.03H320.783V1921.09C320.783 1920.54 320.412 1920.16 319.875 1920.16C319.358 1920.16 318.986 1920.54 318.986 1921.09V1925.03H315.041C314.494 1925.03 314.123 1925.4 314.123 1925.95Z" fill="black"/>
</g>
<text id="Design Variations" fill="black" xml:space="preserve" style="white-space: pre" font-family="Inter" font-size="13" font-weight="bold" letter-spacing="0em"><tspan x="263" y="1952.73">Design Variations</tspan></text>
<text id="Symbols are supported in up to nine weights and three scales." fill="black" xml:space="preserve" style="white-space: pre" font-family="Inter" font-size="13" letter-spacing="0em"><tspan x="263" y="1970.73">Symbols are supported in up to nine weights and three scales.</tspan></text>
<text id="For optimal layout with text and other symbols, vertically align" fill="black" xml:space="preserve" style="white-space: pre" font-family="Inter" font-size="13" letter-spacing="0em"><tspan x="263" y="1988.73">For optimal layout with text and other symbols, vertically align</tspan></text>
<text id="symbols with the adjacent text." fill="black" xml:space="preserve" style="white-space: pre" font-family="Inter" font-size="13" letter-spacing="0em"><tspan x="263" y="2006.73">symbols with the adjacent text.</tspan></text>
<path id="Vector_6" d="M776 1919V1933" stroke="#00AEEF" stroke-width="0.5"/>
<g id="Group_4">
<path id="Vector_7" d="M779.311 1933.16C779.828 1933.16 780.082 1932.96 780.268 1932.41L781.527 1928.97H787.289L788.549 1932.41C788.734 1932.96 788.988 1933.16 789.496 1933.16C790.014 1933.16 790.346 1932.84 790.346 1932.36C790.346 1932.19 790.316 1932.03 790.238 1931.83L785.658 1919.63C785.434 1919.04 785.033 1918.73 784.408 1918.73C783.803 1918.73 783.393 1919.03 783.178 1919.62L778.598 1931.84C778.52 1932.04 778.49 1932.2 778.49 1932.37C778.49 1932.85 778.803 1933.16 779.311 1933.16ZM782.006 1927.48L784.379 1920.91H784.428L786.801 1927.48H782.006Z" fill="black"/>
</g>
<path id="Vector_8" d="M792.836 1919V1933" stroke="#00AEEF" stroke-width="0.5"/>
<text id="Margins" fill="black" xml:space="preserve" style="white-space: pre" font-family="Inter" font-size="13" font-weight="bold" letter-spacing="0em"><tspan x="776" y="1952.73">Margins</tspan></text>
<text id="Leading and trailing margins on the left and right side of each symbol" fill="black" xml:space="preserve" style="white-space: pre" font-family="Inter" font-size="13" letter-spacing="0em"><tspan x="776" y="1970.73">Leading and trailing margins on the left and right side of each symbol</tspan></text>
<text id="can be adjusted by modifying the x-location of the margin guidelines." fill="black" xml:space="preserve" style="white-space: pre" font-family="Inter" font-size="13" letter-spacing="0em"><tspan x="776" y="1988.73">can be adjusted by modifying the x-location of the margin guidelines.</tspan></text>
<text id="Modifications are automatically applied proportionally to all" fill="black" xml:space="preserve" style="white-space: pre" font-family="Inter" font-size="13" letter-spacing="0em"><tspan x="776" y="2006.73">Modifications are automatically applied proportionally to all</tspan></text>
<text id="scales and weights." fill="black" xml:space="preserve" style="white-space: pre" font-family="Inter" font-size="13" letter-spacing="0em"><tspan x="776" y="2024.73">scales and weights.</tspan></text>
<g id="Group_5">
<path id="Vector_9" d="M1291.84 1934.87L1293.54 1936.57C1294.4 1937.44 1295.39 1937.38 1296.31 1936.36L1307.01 1924.57L1306.04 1923.6L1295.43 1935.28C1295.07 1935.68 1294.74 1935.77 1294.27 1935.3L1293.1 1934.14C1292.63 1933.68 1292.74 1933.34 1293.14 1932.98L1304.62 1922.18L1303.64 1921.21L1292.05 1932.1C1291.06 1933.02 1290.98 1934 1291.84 1934.87ZM1298.26 1916.67C1297.84 1917.08 1297.81 1917.66 1298.04 1918.05C1298.28 1918.41 1298.74 1918.64 1299.38 1918.48C1300.85 1918.14 1302.37 1918.08 1303.79 1919.02L1303.21 1920.47C1302.87 1921.3 1303.04 1921.89 1303.58 1922.43L1305.88 1924.75C1306.36 1925.24 1306.77 1925.26 1307.34 1925.16L1308.4 1924.96L1309.07 1925.64L1309.03 1926.19C1308.99 1926.69 1309.12 1927.07 1309.61 1927.55L1310.37 1928.29C1310.85 1928.77 1311.46 1928.8 1311.93 1928.33L1314.84 1925.41C1315.31 1924.94 1315.29 1924.35 1314.81 1923.87L1314.04 1923.11C1313.56 1922.63 1313.19 1922.47 1312.71 1922.51L1312.13 1922.56L1311.49 1921.93L1311.73 1920.8C1311.86 1920.24 1311.71 1919.8 1311.12 1919.21L1308.92 1917.02C1305.58 1913.7 1301.15 1913.78 1298.26 1916.67ZM1299.75 1917.04C1302.18 1915.27 1305.47 1915.57 1307.7 1917.8L1310.13 1920.21C1310.37 1920.44 1310.41 1920.63 1310.34 1920.97L1310.02 1922.45L1311.52 1923.94L1312.51 1923.88C1312.76 1923.87 1312.84 1923.89 1313.03 1924.08L1313.61 1924.66L1311.17 1927.1L1310.59 1926.53C1310.4 1926.33 1310.37 1926.25 1310.38 1925.99L1310.45 1925.01L1308.95 1923.53L1307.43 1923.78C1307.11 1923.85 1306.96 1923.82 1306.71 1923.59L1304.71 1921.58C1304.46 1921.35 1304.43 1921.18 1304.59 1920.81L1305.46 1918.72C1303.9 1917.27 1301.87 1916.64 1299.84 1917.24C1299.68 1917.28 1299.63 1917.15 1299.75 1917.04Z" fill="black"/>
</g>
<text id="Exporting" fill="black" xml:space="preserve" style="white-space: pre" font-family="Inter" font-size="13" font-weight="bold" letter-spacing="0em"><tspan x="1289" y="1952.73">Exporting</tspan></text>
<text id="Symbols should be outlined when exporting to ensure the" fill="black" xml:space="preserve" style="white-space: pre" font-family="Inter" font-size="13" letter-spacing="0em"><tspan x="1289" y="1970.73">Symbols should be outlined when exporting to ensure the</tspan></text>
<text id="design is preserved when submitting to Xcode." fill="black" xml:space="preserve" style="white-space: pre" font-family="Inter" font-size="13" letter-spacing="0em"><tspan x="1289" y="1988.73">design is preserved when submitting to Xcode.</tspan></text>
<text id="template-version" fill="black" xml:space="preserve" style="white-space: pre" font-family="Inter" font-size="13" letter-spacing="0em"><tspan x="2946" y="1932.73">Template v.5.0</tspan></text>
<text id="Requires Xcode 15 or greater" fill="black" xml:space="preserve" style="white-space: pre" font-family="Inter" font-size="13" letter-spacing="0em"><tspan x="2858" y="1950.73">Requires Xcode 15 or greater</tspan></text>
<text id="descriptive-name" fill="black" xml:space="preserve" style="white-space: pre" font-family="Inter" font-size="13" letter-spacing="0em"><tspan x="2885" y="1968.73">Generated from heart.fill</tspan></text>
<text id="Typeset at 100.0 points" fill="black" xml:space="preserve" style="white-space: pre" font-family="Inter" font-size="13" letter-spacing="0em"><tspan x="2892" y="1986.73">Typeset at 100.0 points</tspan></text>
<text id="Small" fill="black" xml:space="preserve" style="white-space: pre" font-family="Inter" font-size="13" letter-spacing="0em"><tspan x="263" y="725.727">Small</tspan></text>
<text id="Medium_2" fill="black" xml:space="preserve" style="white-space: pre" font-family="Inter" font-size="13" letter-spacing="0em"><tspan x="263" y="1155.73">Medium</tspan></text>
<text id="Large" fill="black" xml:space="preserve" style="white-space: pre" font-family="Inter" font-size="13" letter-spacing="0em"><tspan x="263" y="1585.73">Large</tspan></text>
</g>
<g id="Guides">
<g id="H-reference">
<path id="Vector_10" d="M339.994 696H342.638L368.328 628.868H369.03V625.541H367.123L339.994 696ZM350.688 671.52H385.981L385.231 669.272H351.438L350.688 671.52ZM394.12 696H396.764L369.638 625.541H368.433V628.868L394.12 696Z" fill="#27AAE1"/>
</g>
<path id="Baseline-S" d="M263 696H3036" stroke="#27AAE1" stroke-width="0.5"/>
<path id="Capline-S" d="M263 625.541H3036" stroke="#27AAE1" stroke-width="0.5"/>
<g id="H-reference_2">
<path id="Vector_11" d="M339.994 1126H342.638L368.328 1058.87H369.03V1055.54H367.123L339.994 1126ZM350.688 1101.52H385.981L385.231 1099.27H351.438L350.688 1101.52ZM394.12 1126H396.764L369.638 1055.54H368.433V1058.87L394.12 1126Z" fill="#27AAE1"/>
</g>
<path id="Baseline-M" d="M263 1126H3036" stroke="#27AAE1" stroke-width="0.5"/>
<path id="Capline-M" d="M263 1055.54H3036" stroke="#27AAE1" stroke-width="0.5"/>
<g id="H-reference_3">
<path id="Vector_12" d="M339.994 1556H342.638L368.328 1488.87H369.03V1485.54H367.123L339.994 1556ZM350.688 1531.52H385.981L385.231 1529.27H351.438L350.688 1531.52ZM394.12 1556H396.764L369.638 1485.54H368.433V1488.87L394.12 1556Z" fill="#27AAE1"/>
</g>
<path id="Baseline-L" d="M263 1556H3036" stroke="#27AAE1" stroke-width="0.5"/>
<path id="Capline-L" d="M263 1485.54H3036" stroke="#27AAE1" stroke-width="0.5"/>
<path id="left-margin-Ultralight-S" d="M513.924 600.785V720.121" stroke="#00AEEF" stroke-width="0.5"/>
<path id="right-margin-Ultralight-S" d="M605.498 600.785V720.121" stroke="#00AEEF" stroke-width="0.5"/>
<path id="left-margin-Regular-S" d="M1401.65 600.785V720.121" stroke="#00AEEF" stroke-width="0.5"/>
<path id="right-margin-Regular-S" d="M1498.04 600.785V720.121" stroke="#00AEEF" stroke-width="0.5"/>
<path id="left-margin-Black-S" d="M2881.74 600.785V720.121" stroke="#00AEEF" stroke-width="0.5"/>
<path id="right-margin-Black-S" d="M2985.06 600.785V720.121" stroke="#00AEEF" stroke-width="0.5"/>
</g>
<g id="Symbols">
<g id="Black-S">
<g id="Group_6">
<path id="Vector_13" d="M2914.14 653.066C2914.26 652.963 2914.59 652.562 2914.7 652.454C2919.08 648.071 2923.46 643.688 2927.85 639.305C2927.94 639.215 2928.03 639.125 2928.12 639.037C2928.18 638.971 2928.25 638.98 2928.32 639.042C2928.4 639.122 2928.48 639.202 2928.56 639.283C2930.35 641.071 2932.13 642.858 2933.92 644.646C2934 644.727 2934.08 644.809 2934.16 644.888C2934.45 645.161 2934.79 645.303 2935.19 645.306C2935.57 645.309 2936.21 645.014 2936.51 644.756C2936.69 644.645 2936.52 644.994 2936.65 645.113C2937.83 646.248 2938.93 647.458 2940.08 648.625C2940.17 648.717 2940.26 648.81 2940.22 648.957C2939.76 649.842 2939.84 650.422 2940.54 651.119C2941.88 652.467 2943.23 653.818 2944.58 655.159C2945.33 655.91 2946.48 655.74 2947 654.811C2947.32 654.232 2947.21 653.497 2946.71 652.99C2945.58 651.854 2944.45 650.725 2943.32 649.592C2943.07 649.35 2942.83 649.106 2942.59 648.865C2941.98 648.265 2941.31 648.19 2940.59 648.644C2940.52 648.691 2940.2 648.973 2940.1 648.987C2939.96 648.995 2940.13 648.668 2940.04 648.578C2938.58 647.729 2937.79 646.21 2936.61 645.075C2936.54 645.004 2936.48 644.924 2936.45 644.822C2936.66 644.576 2936.81 644.304 2936.87 643.981C2936.96 643.489 2936.85 643.05 2936.53 642.665C2936.44 642.557 2936.34 642.462 2936.24 642.363C2934.44 640.566 2932.65 638.77 2930.85 636.974C2930.49 636.613 2930.5 636.653 2930.85 636.301C2933.38 633.768 2935.91 631.235 2938.44 628.701C2938.84 628.301 2939.3 627.988 2939.82 627.776C2940.27 627.6 2940.72 627.53 2941.2 627.52C2941.86 627.504 2942.47 627.672 2943.06 627.979C2943.32 628.116 2943.55 628.295 2943.77 628.489C2943.85 628.564 2943.93 628.648 2944.01 628.729C2946.67 631.387 2949.33 634.046 2951.98 636.706C2952.08 636.804 2952.2 636.887 2952.26 637.016C2952.23 637.122 2952.14 637.18 2952.07 637.251C2951.73 637.594 2951.39 637.937 2951.05 638.275C2950.27 639.039 2949.79 639.958 2949.65 641.039C2949.59 641.477 2949.61 641.921 2949.68 642.366C2949.79 642.964 2949.99 643.52 2950.31 644.025C2951.03 645.138 2952.04 645.832 2953.35 646.065C2954.65 646.297 2955.84 646.014 2956.9 645.223C2957.09 645.086 2957.26 644.934 2957.42 644.773C2957.77 644.422 2958.12 644.071 2958.47 643.722C2958.55 643.642 2958.63 643.566 2958.71 643.494C2958.83 643.524 2958.89 643.614 2958.96 643.685C2961.47 646.19 2963.97 648.697 2966.48 651.202C2967.04 651.768 2967.41 652.449 2967.51 653.235C2967.67 654.466 2967.4 655.592 2966.5 656.496C2963.9 659.107 2961.3 661.708 2958.69 664.314C2958.64 664.368 2958.58 664.421 2958.52 664.468C2958.47 664.51 2958.4 664.512 2958.35 664.465C2958.26 664.391 2958.18 664.312 2958.1 664.231C2956.48 662.615 2954.87 660.998 2953.25 659.381C2953.18 659.309 2953.1 659.242 2953.03 659.164C2952.74 658.818 2952.35 658.681 2951.92 658.661C2951.6 658.646 2951.26 658.724 2950.98 658.92C2950.47 659.28 2950.21 659.776 2950.24 660.411C2950.25 660.752 2950.37 661.054 2950.59 661.315C2950.67 661.413 2950.77 661.499 2950.86 661.589C2952.52 663.251 2954.18 664.913 2955.84 666.574C2956.16 666.898 2956.16 666.848 2955.85 667.155C2946.54 676.471 2937.23 685.785 2927.92 695.102C2927.42 695.598 2926.86 695.982 2926.18 696.154C2924.99 696.457 2923.87 696.298 2922.86 695.547C2922.65 695.387 2922.46 695.205 2922.27 695.016C2916.6 689.348 2910.94 683.679 2905.27 678.012C2905.15 677.896 2905.05 677.764 2904.9 677.682C2904.33 677.237 2903.8 676.756 2903.39 676.152C2903.3 676.051 2903.2 675.946 2903.11 675.848C2902.05 674.788 2900.99 673.728 2899.93 672.67C2899.3 672.038 2898.93 671.273 2898.82 670.39C2898.75 669.752 2898.84 669.127 2899.08 668.525C2899.27 668.034 2899.57 667.613 2899.93 667.233C2900.04 667.113 2900.16 666.999 2900.28 666.882C2904.79 662.367 2909.3 657.853 2913.82 653.337C2913.92 653.23 2914.6 652.606 2914.7 652.494C2914.87 652.364 2914.38 653.025 2914.47 653.115C2916.63 655.313 2918.98 657.329 2921.08 659.584C2921.66 660.206 2922.18 660.893 2922.78 661.498C2922.89 661.611 2923.53 661.272 2923.48 661.476C2923.4 661.64 2922.77 662.183 2922.65 662.308C2920.27 664.687 2917.9 667.067 2915.51 669.443C2915.15 669.804 2914.89 670.194 2914.89 670.738C2914.9 671.383 2915.2 671.836 2915.75 672.111C2916.26 672.364 2916.78 672.323 2917.27 672.017C2917.47 671.894 2917.62 671.727 2917.78 671.565C2921.34 668.002 2924.91 664.439 2928.47 660.876C2928.6 660.742 2929.06 660.2 2929.23 660.109C2929.42 660.057 2929.17 660.584 2929.28 660.685C2929.75 661.114 2930.63 661.231 2931.07 661.681C2932.39 663.014 2934.62 663.717 2934.56 666.047C2934.68 666.167 2934.86 666.264 2934.81 666.485C2934.73 666.637 2934.6 666.74 2934.48 666.856C2933 668.337 2931.53 669.822 2930.04 671.297C2929.6 671.74 2929.42 672.257 2929.6 672.855C2929.79 673.495 2930.24 673.869 2930.91 673.974C2931.24 674.026 2931.54 673.938 2931.82 673.788C2932.03 673.674 2932.22 673.516 2932.39 673.344C2935.09 670.642 2937.79 667.941 2940.49 665.241C2940.91 664.818 2941.19 664.344 2941.09 663.717C2940.99 663.114 2940.65 662.695 2940.09 662.481C2939.49 662.257 2938.95 662.417 2938.51 662.841C2937.89 663.426 2937.31 664.045 2936.7 664.639C2936.14 665.188 2935.23 666.217 2934.62 666.72C2934.44 666.775 2934.73 666.206 2934.62 666.101C2933.22 664.703 2931.82 663.314 2930.43 661.897C2930.03 661.481 2929.64 661.045 2929.23 660.63C2929.14 660.539 2929.05 660.447 2929.09 660.299C2929.17 660.147 2929.3 660.044 2929.42 659.927C2930.4 658.939 2931.39 657.951 2932.38 656.964C2932.72 656.619 2932.95 656.228 2932.93 655.716C2932.9 655.113 2932.62 654.668 2932.1 654.396C2931.58 654.124 2931.05 654.142 2930.55 654.468C2930.36 654.586 2930.21 654.742 2930.06 654.894C2927.91 657.049 2925.75 659.204 2923.6 661.358C2923.47 661.483 2923.36 661.624 2923.2 661.71C2923 661.768 2922.9 661.614 2922.79 661.5C2920.06 658.678 2917.08 656.154 2914.5 653.131C2914.41 653.038 2914.01 653.254 2914.14 653.066Z" fill="#B2B3B5"/>
<path id="Vector_14" d="M2904.83 636.677C2905.05 636.006 2905.28 635.336 2905.51 634.663C2905.75 633.943 2905.98 633.215 2906.24 632.501C2906.7 631.215 2907.11 629.91 2907.55 628.614C2907.84 627.78 2908.33 627.112 2909.06 626.621C2909.48 626.335 2909.94 626.126 2910.45 626.028C2910.57 626.005 2910.7 626.003 2910.82 626.004C2911.9 626.009 2911.65 625.928 2912.79 626.31C2914.57 626.903 2916.35 627.494 2918.13 628.091C2918.98 628.376 2919.83 628.675 2920.68 628.968C2920.75 628.992 2920.82 629.021 2920.89 629.052C2920.95 629.082 2920.98 629.139 2920.96 629.208C2920.94 629.294 2920.91 629.378 2920.88 629.462C2920.75 629.859 2920.62 630.255 2920.48 630.651C2920.36 631.025 2920.3 631.408 2920.29 631.804C2920.28 632.269 2920.39 632.71 2920.55 633.137C2920.73 633.59 2920.97 634.011 2921.31 634.357C2921.67 634.729 2922.1 635.034 2922.59 635.222C2922.85 635.32 2923.11 635.413 2923.39 635.464C2923.46 635.479 2923.49 635.55 2923.44 635.605C2923.4 635.654 2923.36 635.701 2923.32 635.746C2921.51 637.55 2919.71 639.355 2917.91 641.159C2917.87 641.194 2917.83 641.221 2917.79 641.253C2916.89 641.407 2916.56 641.744 2916.49 642.555C2916.45 642.603 2916.41 642.654 2916.37 642.698C2909.69 649.38 2903.01 656.061 2896.33 662.741C2896.24 662.834 2896.16 662.953 2896.02 662.999C2895.97 662.903 2896.02 662.838 2896.05 662.767C2896.66 660.928 2897.26 659.083 2897.89 657.251C2898.57 655.287 2899.2 653.305 2899.88 651.343C2900.64 649.177 2901.34 646.993 2902.08 644.822C2902.69 643.035 2903.29 641.246 2903.89 639.457C2903.9 639.421 2903.91 639.382 2903.91 639.345C2903.96 639.302 2904.02 639.279 2904.08 639.279C2904.25 639.292 2904.4 639.36 2904.55 639.411C2906.47 640.053 2908.38 640.676 2910.29 641.346C2910.74 641.505 2911.19 641.525 2911.59 641.22C2911.99 640.922 2912.18 640.525 2912.1 640.025C2912.01 639.514 2911.69 639.191 2911.21 639.026C2909.83 638.551 2908.46 638.07 2907.07 637.614C2906.37 637.383 2905.67 637.18 2904.98 636.899C2904.91 636.844 2904.8 636.809 2904.83 636.677Z" fill="#D8D9DB"/>
<path id="Vector_15" d="M2916.49 642.557C2916.35 642.418 2916.39 642.25 2916.45 642.102C2916.67 641.579 2917.04 641.248 2917.62 641.18C2917.69 641.172 2917.75 641.199 2917.79 641.255C2917.37 641.708 2916.93 642.135 2916.49 642.557Z" fill="#B4B5B7"/>
</g>
</g>
<g id="Regular-S">
<g id="Group_7">
<path id="Vector_16" d="M1429.55 650.151C1429.69 650.029 1430.09 649.552 1430.21 649.425C1435.42 644.218 1440.62 639.011 1445.83 633.804C1445.94 633.697 1446.04 633.591 1446.15 633.486C1446.23 633.408 1446.31 633.418 1446.39 633.493C1446.48 633.588 1446.58 633.683 1446.68 633.779C1448.8 635.903 1450.92 638.025 1453.05 640.149C1453.14 640.245 1453.24 640.343 1453.33 640.436C1453.68 640.761 1454.08 640.93 1454.56 640.933C1455.01 640.936 1455.77 640.587 1456.12 640.28C1456.34 640.148 1456.14 640.563 1456.28 640.703C1457.69 642.052 1459 643.49 1460.36 644.876C1460.47 644.985 1460.57 645.096 1460.53 645.27C1459.98 646.321 1460.08 647.01 1460.9 647.838C1462.5 649.439 1464.1 651.044 1465.71 652.638C1466.6 653.53 1467.96 653.327 1468.58 652.224C1468.97 651.537 1468.84 650.664 1468.24 650.06C1466.9 648.711 1465.55 647.37 1464.21 646.025C1463.92 645.737 1463.63 645.447 1463.34 645.161C1462.62 644.448 1461.82 644.359 1460.97 644.898C1460.88 644.954 1460.5 645.289 1460.39 645.306C1460.22 645.316 1460.42 644.926 1460.31 644.82C1458.58 643.812 1457.64 642.007 1456.24 640.659C1456.16 640.574 1456.08 640.48 1456.05 640.358C1456.3 640.066 1456.48 639.742 1456.55 639.359C1456.66 638.774 1456.52 638.253 1456.15 637.795C1456.04 637.668 1455.92 637.555 1455.8 637.438C1453.67 635.303 1451.53 633.169 1449.4 631.036C1448.97 630.607 1448.98 630.654 1449.39 630.236C1452.4 627.227 1455.41 624.218 1458.42 621.209C1458.89 620.733 1459.43 620.361 1460.06 620.11C1460.58 619.9 1461.12 619.818 1461.69 619.805C1462.48 619.787 1463.21 619.986 1463.9 620.351C1464.21 620.514 1464.48 620.726 1464.74 620.956C1464.84 621.046 1464.94 621.145 1465.03 621.241C1468.19 624.399 1471.35 627.558 1474.5 630.718C1474.62 630.834 1474.76 630.932 1474.83 631.085C1474.79 631.211 1474.69 631.28 1474.6 631.364C1474.2 631.772 1473.8 632.179 1473.39 632.581C1472.46 633.488 1471.89 634.58 1471.73 635.865C1471.66 636.384 1471.68 636.912 1471.77 637.44C1471.89 638.151 1472.13 638.811 1472.52 639.412C1473.37 640.734 1474.57 641.558 1476.12 641.834C1477.67 642.11 1479.08 641.775 1480.35 640.835C1480.57 640.672 1480.77 640.491 1480.96 640.299C1481.37 639.883 1481.79 639.466 1482.21 639.051C1482.3 638.956 1482.4 638.867 1482.49 638.781C1482.64 638.817 1482.71 638.924 1482.79 639.007C1485.77 641.983 1488.74 644.962 1491.72 647.937C1492.39 648.61 1492.82 649.418 1492.95 650.352C1493.14 651.814 1492.81 653.151 1491.75 654.225C1488.66 657.327 1485.56 660.417 1482.47 663.512C1482.41 663.576 1482.34 663.64 1482.27 663.695C1482.21 663.745 1482.13 663.747 1482.06 663.692C1481.96 663.604 1481.86 663.51 1481.77 663.414C1479.85 661.494 1477.93 659.573 1476.01 657.652C1475.92 657.567 1475.83 657.488 1475.75 657.395C1475.4 656.984 1474.93 656.821 1474.43 656.797C1474.04 656.779 1473.65 656.872 1473.31 657.104C1472.7 657.533 1472.39 658.121 1472.43 658.876C1472.44 659.281 1472.59 659.639 1472.85 659.95C1472.94 660.066 1473.06 660.168 1473.16 660.275C1475.14 662.249 1477.11 664.224 1479.08 666.197C1479.47 666.582 1479.46 666.523 1479.09 666.887C1468.04 677.953 1456.98 689.017 1445.92 700.085C1445.33 700.674 1444.66 701.13 1443.86 701.335C1442.44 701.694 1441.11 701.506 1439.91 700.614C1439.66 700.424 1439.43 700.207 1439.2 699.983C1432.47 693.249 1425.74 686.516 1419.01 679.784C1418.87 679.647 1418.75 679.49 1418.58 679.392C1417.9 678.863 1417.27 678.292 1416.78 677.575C1416.67 677.454 1416.56 677.33 1416.44 677.213C1415.18 675.954 1413.93 674.696 1412.67 673.439C1411.92 672.688 1411.47 671.778 1411.35 670.73C1411.26 669.973 1411.37 669.23 1411.65 668.515C1411.89 667.931 1412.24 667.431 1412.67 666.98C1412.8 666.837 1412.94 666.701 1413.08 666.563C1418.44 661.2 1423.8 655.837 1429.16 650.473C1429.29 650.346 1430.09 649.605 1430.21 649.472C1430.41 649.317 1429.84 650.102 1429.94 650.209C1432.51 652.821 1435.29 655.215 1437.8 657.894C1438.48 658.632 1439.1 659.449 1439.81 660.167C1439.94 660.301 1440.71 659.899 1440.65 660.141C1440.55 660.336 1439.8 660.981 1439.66 661.129C1436.83 663.956 1434.01 666.782 1431.18 669.605C1430.75 670.034 1430.44 670.497 1430.44 671.144C1430.45 671.91 1430.8 672.448 1431.46 672.774C1432.06 673.075 1432.68 673.026 1433.27 672.662C1433.5 672.517 1433.68 672.318 1433.88 672.126C1438.11 667.893 1442.34 663.66 1446.57 659.428C1446.73 659.269 1447.27 658.626 1447.48 658.517C1447.69 658.455 1447.4 659.081 1447.53 659.202C1448.09 659.712 1449.13 659.85 1449.66 660.385C1451.23 661.969 1453.88 662.803 1453.81 665.571C1453.95 665.713 1454.16 665.829 1454.1 666.091C1454.01 666.272 1453.85 666.394 1453.71 666.532C1451.96 668.292 1450.2 670.055 1448.44 671.807C1447.91 672.334 1447.7 672.948 1447.91 673.659C1448.14 674.418 1448.67 674.862 1449.47 674.987C1449.86 675.049 1450.21 674.945 1450.55 674.766C1450.8 674.631 1451.02 674.443 1451.22 674.239C1454.43 671.03 1457.64 667.821 1460.85 664.613C1461.35 664.111 1461.69 663.548 1461.56 662.803C1461.45 662.086 1461.04 661.589 1460.37 661.336C1459.66 661.068 1459.02 661.26 1458.49 661.763C1457.76 662.458 1457.07 663.193 1456.34 663.899C1455.68 664.551 1454.6 665.773 1453.88 666.371C1453.66 666.436 1454.01 665.76 1453.88 665.635C1452.22 663.975 1450.54 662.325 1448.9 660.642C1448.42 660.147 1447.96 659.629 1447.48 659.137C1447.37 659.028 1447.26 658.918 1447.31 658.744C1447.4 658.563 1447.56 658.44 1447.7 658.302C1448.87 657.127 1450.04 655.954 1451.21 654.781C1451.62 654.371 1451.89 653.908 1451.87 653.299C1451.84 652.583 1451.5 652.054 1450.88 651.731C1450.27 651.408 1449.64 651.429 1449.04 651.816C1448.82 651.957 1448.64 652.142 1448.46 652.323C1445.9 654.882 1443.34 657.442 1440.78 660.001C1440.63 660.149 1440.5 660.317 1440.31 660.419C1440.07 660.488 1439.95 660.305 1439.82 660.169C1436.58 656.817 1433.04 653.819 1429.98 650.229C1429.87 650.118 1429.4 650.375 1429.55 650.151Z" fill="#B2B3B5"/>
<path id="Vector_17" d="M1418.48 630.684C1418.76 629.887 1419.03 629.09 1419.3 628.291C1419.59 627.435 1419.85 626.571 1420.16 625.722C1420.71 624.195 1421.2 622.644 1421.72 621.105C1422.06 620.115 1422.65 619.321 1423.51 618.737C1424.01 618.398 1424.56 618.149 1425.16 618.034C1425.31 618.005 1425.46 618.004 1425.61 618.005C1426.89 618.011 1426.59 617.914 1427.95 618.369C1430.06 619.072 1432.17 619.774 1434.28 620.483C1435.3 620.823 1436.3 621.177 1437.31 621.526C1437.4 621.555 1437.48 621.588 1437.56 621.625C1437.64 621.661 1437.67 621.729 1437.65 621.811C1437.63 621.913 1437.59 622.013 1437.56 622.113C1437.4 622.583 1437.24 623.054 1437.09 623.524C1436.93 623.969 1436.87 624.425 1436.86 624.895C1436.84 625.447 1436.97 625.971 1437.16 626.478C1437.37 627.017 1437.67 627.516 1438.07 627.927C1438.49 628.369 1439 628.732 1439.59 628.955C1439.9 629.071 1440.21 629.181 1440.53 629.243C1440.62 629.26 1440.65 629.344 1440.6 629.409C1440.55 629.468 1440.5 629.523 1440.45 629.577C1438.31 631.72 1436.16 633.864 1434.02 636.007C1433.98 636.049 1433.93 636.081 1433.88 636.118C1432.82 636.301 1432.42 636.702 1432.34 637.665C1432.29 637.722 1432.25 637.783 1432.19 637.835C1424.26 645.772 1416.33 653.709 1408.39 661.645C1408.28 661.755 1408.19 661.895 1408.03 661.951C1407.96 661.837 1408.03 661.759 1408.05 661.675C1408.78 659.491 1409.49 657.299 1410.25 655.122C1411.05 652.789 1411.8 650.435 1412.61 648.104C1413.51 645.531 1414.34 642.938 1415.22 640.358C1415.94 638.236 1416.66 636.11 1417.37 633.985C1417.39 633.943 1417.39 633.897 1417.4 633.852C1417.46 633.801 1417.52 633.774 1417.6 633.774C1417.79 633.79 1417.98 633.87 1418.16 633.931C1420.43 634.694 1422.71 635.434 1424.97 636.23C1425.5 636.418 1426.04 636.442 1426.52 636.079C1426.99 635.726 1427.22 635.254 1427.12 634.66C1427.02 634.052 1426.64 633.669 1426.07 633.474C1424.43 632.909 1422.8 632.338 1421.15 631.796C1420.32 631.522 1419.48 631.28 1418.67 630.946C1418.58 630.882 1418.45 630.839 1418.48 630.684Z" fill="#D8D9DB"/>
<path id="Vector_18" d="M1432.34 637.666C1432.17 637.502 1432.22 637.301 1432.29 637.127C1432.55 636.504 1433 636.111 1433.69 636.031C1433.77 636.022 1433.83 636.053 1433.88 636.12C1433.39 636.658 1432.87 637.166 1432.34 637.666Z" fill="#B4B5B7"/>
</g>
</g>
<g id="Ultralight-S">
<g id="Group_8">
<path id="Vector_19" d="M543.068 652.952C543.179 652.849 543.514 652.45 543.62 652.343C547.984 647.978 552.348 643.613 556.711 639.249C556.8 639.159 556.891 639.07 556.981 638.982C557.048 638.917 557.115 638.925 557.179 638.988C557.26 639.067 557.341 639.147 557.422 639.227C559.201 641.008 560.981 642.787 562.76 644.567C562.84 644.648 562.92 644.73 563.002 644.808C563.289 645.081 563.623 645.222 564.026 645.225C564.405 645.227 565.042 644.934 565.336 644.677C565.521 644.567 565.351 644.914 565.473 645.032C566.649 646.162 567.747 647.368 568.892 648.529C568.982 648.621 569.07 648.714 569.03 648.86C568.572 649.741 568.655 650.319 569.348 651.013C570.688 652.355 572.026 653.7 573.372 655.036C574.125 655.784 575.264 655.614 575.782 654.689C576.105 654.113 575.996 653.381 575.494 652.876C574.372 651.744 573.243 650.62 572.116 649.493C571.875 649.251 571.635 649.008 571.392 648.769C570.786 648.171 570.114 648.097 569.401 648.548C569.326 648.595 569.008 648.876 568.917 648.89C568.771 648.898 568.94 648.572 568.853 648.483C567.399 647.637 566.612 646.125 565.441 644.995C565.367 644.923 565.307 644.844 565.282 644.743C565.49 644.498 565.641 644.227 565.698 643.905C565.786 643.415 565.672 642.978 565.358 642.594C565.27 642.487 565.166 642.393 565.068 642.294C563.28 640.505 561.492 638.717 559.703 636.928C559.344 636.569 559.349 636.608 559.699 636.258C562.221 633.736 564.743 631.213 567.264 628.69C567.661 628.292 568.113 627.98 568.638 627.769C569.079 627.593 569.532 627.524 570.005 627.514C570.669 627.498 571.277 627.665 571.858 627.971C572.118 628.108 572.346 628.286 572.563 628.479C572.648 628.554 572.727 628.637 572.807 628.718C575.453 631.365 578.101 634.013 580.746 636.662C580.844 636.759 580.959 636.841 581.021 636.97C580.989 637.075 580.9 637.133 580.831 637.204C580.493 637.545 580.155 637.887 579.812 638.223C579.036 638.984 578.557 639.899 578.42 640.976C578.364 641.412 578.38 641.854 578.457 642.297C578.559 642.893 578.76 643.446 579.084 643.949C579.797 645.058 580.803 645.749 582.104 645.98C583.402 646.211 584.584 645.93 585.645 645.142C585.829 645.005 585.997 644.854 586.158 644.693C586.506 644.344 586.855 643.995 587.204 643.647C587.283 643.568 587.368 643.492 587.444 643.42C587.566 643.451 587.622 643.54 587.692 643.61C590.187 646.105 592.681 648.602 595.177 651.095C595.742 651.659 596.103 652.337 596.207 653.12C596.371 654.345 596.097 655.467 595.201 656.367C592.615 658.967 590.018 661.557 587.425 664.151C587.372 664.205 587.318 664.258 587.258 664.305C587.204 664.347 587.138 664.349 587.084 664.302C586.998 664.229 586.915 664.15 586.835 664.069C585.225 662.46 583.616 660.85 582.007 659.24C581.935 659.168 581.858 659.101 581.792 659.024C581.502 658.679 581.106 658.543 580.684 658.523C580.359 658.508 580.03 658.585 579.75 658.78C579.235 659.139 578.977 659.633 579.005 660.265C579.02 660.605 579.144 660.905 579.359 661.166C579.44 661.263 579.534 661.349 579.623 661.438C581.277 663.093 582.931 664.748 584.585 666.402C584.907 666.725 584.9 666.676 584.595 666.981C575.327 676.257 566.054 685.532 556.784 694.809C556.291 695.303 555.734 695.685 555.056 695.857C553.866 696.158 552.754 696 551.75 695.253C551.536 695.093 551.345 694.912 551.157 694.723C545.515 689.079 539.873 683.435 534.23 677.792C534.115 677.677 534.013 677.545 533.866 677.463C533.299 677.02 532.768 676.541 532.361 675.94C532.266 675.839 532.174 675.735 532.076 675.637C531.022 674.581 529.969 673.526 528.913 672.473C528.283 671.843 527.913 671.081 527.809 670.202C527.734 669.567 527.823 668.945 528.063 668.345C528.258 667.856 528.553 667.437 528.913 667.058C529.026 666.939 529.144 666.825 529.26 666.709C533.754 662.213 538.248 657.718 542.741 653.222C542.848 653.115 543.518 652.494 543.62 652.382C543.788 652.252 543.304 652.911 543.391 653C545.543 655.19 547.88 657.197 549.976 659.442C550.554 660.061 551.067 660.746 551.662 661.348C551.774 661.46 552.417 661.123 552.367 661.326C552.287 661.489 551.659 662.03 551.535 662.154C549.169 664.523 546.802 666.893 544.432 669.259C544.072 669.619 543.809 670.007 543.813 670.549C543.817 671.191 544.115 671.642 544.664 671.915C545.171 672.168 545.691 672.127 546.179 671.822C546.374 671.7 546.53 671.533 546.69 671.373C550.237 667.824 553.784 664.276 557.332 660.728C557.466 660.595 557.919 660.056 558.091 659.965C558.274 659.913 558.03 660.438 558.139 660.539C558.603 660.966 559.479 661.082 559.921 661.53C561.235 662.858 563.46 663.557 563.397 665.878C563.516 665.997 563.693 666.094 563.641 666.313C563.567 666.465 563.435 666.568 563.32 666.683C561.847 668.158 560.376 669.636 558.897 671.105C558.453 671.546 558.276 672.061 558.455 672.657C558.646 673.294 559.09 673.666 559.759 673.771C560.09 673.822 560.384 673.735 560.667 673.585C560.881 673.472 561.061 673.314 561.232 673.144C563.92 670.453 566.609 667.763 569.298 665.075C569.719 664.654 570.002 664.182 569.899 663.557C569.802 662.956 569.461 662.54 568.899 662.327C568.306 662.103 567.772 662.263 567.327 662.685C566.713 663.268 566.131 663.884 565.525 664.476C564.965 665.022 564.065 666.047 563.46 666.548C563.277 666.603 563.565 666.036 563.46 665.931C562.066 664.539 560.664 663.156 559.289 661.746C558.885 661.331 558.498 660.897 558.091 660.484C558 660.393 557.912 660.301 557.954 660.154C558.028 660.003 558.16 659.9 558.275 659.784C559.257 658.799 560.241 657.816 561.224 656.833C561.568 656.489 561.792 656.101 561.771 655.59C561.746 654.99 561.464 654.547 560.948 654.276C560.432 654.005 559.902 654.023 559.4 654.348C559.217 654.465 559.069 654.62 558.916 654.772C556.771 656.917 554.627 659.064 552.481 661.208C552.356 661.333 552.244 661.473 552.085 661.559C551.884 661.617 551.784 661.463 551.675 661.349C548.957 658.54 545.991 656.026 543.424 653.017C543.33 652.924 542.936 653.139 543.068 652.952Z" fill="#B2B3B5"/>
<path id="Vector_20" d="M533.788 636.632C534.016 635.964 534.245 635.296 534.47 634.626C534.712 633.909 534.934 633.185 535.192 632.473C535.656 631.193 536.064 629.893 536.503 628.603C536.786 627.773 537.281 627.108 538 626.618C538.419 626.333 538.882 626.125 539.384 626.028C539.507 626.005 539.636 626.003 539.761 626.004C540.831 626.009 540.579 625.928 541.723 626.309C543.493 626.899 545.264 627.487 547.033 628.082C547.882 628.366 548.726 628.663 549.572 628.955C549.643 628.98 549.713 629.008 549.782 629.039C549.846 629.069 549.874 629.126 549.857 629.195C549.836 629.28 549.807 629.364 549.779 629.447C549.647 629.842 549.514 630.237 549.381 630.631C549.255 631.004 549.196 631.386 549.188 631.78C549.178 632.243 549.284 632.681 549.447 633.107C549.62 633.558 549.868 633.977 550.202 634.321C550.562 634.692 550.984 634.996 551.478 635.183C551.737 635.281 551.997 635.373 552.27 635.424C552.345 635.439 552.371 635.509 552.327 635.564C552.287 635.613 552.245 635.66 552.2 635.704C550.404 637.501 548.608 639.298 546.812 641.094C546.777 641.129 546.733 641.157 546.694 641.188C545.806 641.341 545.471 641.677 545.403 642.484C545.362 642.532 545.325 642.583 545.281 642.627C538.631 649.28 531.98 655.934 525.327 662.585C525.234 662.678 525.157 662.796 525.023 662.842C524.969 662.746 525.023 662.681 525.045 662.611C525.657 660.78 526.251 658.943 526.883 657.118C527.559 655.162 528.182 653.189 528.865 651.235C529.618 649.078 530.315 646.904 531.051 644.742C531.657 642.963 532.257 641.181 532.859 639.4C532.871 639.364 532.874 639.326 532.881 639.288C532.927 639.245 532.982 639.223 533.045 639.222C533.21 639.236 533.362 639.303 533.518 639.354C535.421 639.994 537.331 640.614 539.225 641.281C539.674 641.439 540.121 641.459 540.525 641.155C540.919 640.859 541.115 640.464 541.031 639.966C540.945 639.456 540.623 639.135 540.147 638.971C538.775 638.497 537.404 638.019 536.024 637.564C535.329 637.335 534.624 637.132 533.947 636.852C533.868 636.798 533.761 636.763 533.788 636.632Z" fill="#D8D9DB"/>
<path id="Vector_21" d="M545.403 642.486C545.26 642.347 545.299 642.18 545.361 642.033C545.578 641.512 545.955 641.182 546.532 641.115C546.598 641.107 546.653 641.134 546.694 641.189C546.282 641.64 545.846 642.066 545.403 642.486Z" fill="#B4B5B7"/>
</g>
</g>
</g>
</g>
<defs>
<clipPath id="clip0_1_12882">
<rect width="3300" height="2200" fill="white"/>
</clipPath>
</defs>
</svg>
