<svg width="3300" height="2200" viewBox="0 0 3300 2200" fill="none" xmlns="http://www.w3.org/2000/svg">
<g id="profile3" clip-path="url(#clip0_1_12708)">
<g id="Notes">
<path id="artboard" d="M3300 0H0V2200H3300V0Z" fill="white"/>
<path id="Vector" d="M263 292H3036" stroke="black" stroke-width="0.5"/>
<text id="Weight/Scale Variations" fill="black" xml:space="preserve" style="white-space: pre" font-family="Inter" font-size="13" font-weight="bold" letter-spacing="0em"><tspan x="263" y="321.727">Weight/Scale Variations</tspan></text>
<text id="Ultralight" fill="black" xml:space="preserve" style="white-space: pre" font-family="Inter" font-size="13" letter-spacing="0em"><tspan x="531.211" y="321.727">Ultralight</tspan></text>
<text id="Thin" fill="black" xml:space="preserve" style="white-space: pre" font-family="Inter" font-size="13" letter-spacing="0em"><tspan x="842.922" y="321.727">Thin</tspan></text>
<text id="Light" fill="black" xml:space="preserve" style="white-space: pre" font-family="Inter" font-size="13" letter-spacing="0em"><tspan x="1137.63" y="321.727">Light</tspan></text>
<text id="Regular" fill="black" xml:space="preserve" style="white-space: pre" font-family="Inter" font-size="13" letter-spacing="0em"><tspan x="1426.34" y="321.727">Regular</tspan></text>
<text id="Medium" fill="black" xml:space="preserve" style="white-space: pre" font-family="Inter" font-size="13" letter-spacing="0em"><tspan x="1721.56" y="321.727">Medium</tspan></text>
<text id="Semibold" fill="black" xml:space="preserve" style="white-space: pre" font-family="Inter" font-size="13" letter-spacing="0em"><tspan x="2014.27" y="321.727">Semibold</tspan></text>
<text id="Bold" fill="black" xml:space="preserve" style="white-space: pre" font-family="Inter" font-size="13" letter-spacing="0em"><tspan x="2325.98" y="321.727">Bold</tspan></text>
<text id="Heavy" fill="black" xml:space="preserve" style="white-space: pre" font-family="Inter" font-size="13" letter-spacing="0em"><tspan x="2617.19" y="321.727">Heavy</tspan></text>
<text id="Black" fill="black" xml:space="preserve" style="white-space: pre" font-family="Inter" font-size="13" letter-spacing="0em"><tspan x="2916.4" y="321.727">Black</tspan></text>
<path id="Vector_2" d="M263 1903H3036" stroke="black" stroke-width="0.5"/>
<g id="Group">
<path id="Vector_3" d="M272.248 1933.83C276.555 1933.83 280.139 1930.26 280.139 1925.95C280.139 1921.64 276.545 1918.07 272.238 1918.07C267.941 1918.07 264.367 1921.64 264.367 1925.95C264.367 1930.26 267.951 1933.83 272.248 1933.83ZM272.248 1932.35C268.703 1932.35 265.871 1929.5 265.871 1925.95C265.871 1922.39 268.693 1919.55 272.238 1919.55C275.793 1919.55 278.645 1922.39 278.645 1925.95C278.645 1929.5 275.803 1932.35 272.248 1932.35ZM268.654 1925.95C268.654 1926.38 268.957 1926.67 269.406 1926.67H271.506V1928.79C271.506 1929.23 271.799 1929.53 272.229 1929.53C272.678 1929.53 272.971 1929.23 272.971 1928.79V1926.67H275.09C275.529 1926.67 275.832 1926.38 275.832 1925.95C275.832 1925.51 275.529 1925.21 275.09 1925.21H272.971V1923.1C272.971 1922.65 272.678 1922.35 272.229 1922.35C271.799 1922.35 271.506 1922.65 271.506 1923.1V1925.21H269.406C268.957 1925.21 268.654 1925.51 268.654 1925.95Z" fill="black"/>
</g>
<g id="Group_2">
<path id="Vector_4" d="M293.215 1935.91C298.664 1935.91 303.176 1931.39 303.176 1925.95C303.176 1920.5 298.654 1915.99 293.205 1915.99C287.766 1915.99 283.254 1920.5 283.254 1925.95C283.254 1931.39 287.775 1935.91 293.215 1935.91ZM293.215 1934.25C288.605 1934.25 284.924 1930.56 284.924 1925.95C284.924 1921.34 288.596 1917.65 293.205 1917.65C297.814 1917.65 301.516 1921.34 301.516 1925.95C301.516 1930.56 297.824 1934.25 293.215 1934.25ZM288.684 1925.95C288.684 1926.43 289.016 1926.75 289.514 1926.75H292.385V1929.63C292.385 1930.12 292.717 1930.46 293.195 1930.46C293.684 1930.46 294.025 1930.13 294.025 1929.63V1926.75H296.906C297.395 1926.75 297.736 1926.43 297.736 1925.95C297.736 1925.46 297.395 1925.12 296.906 1925.12H294.025V1922.25C294.025 1921.75 293.684 1921.41 293.195 1921.41C292.717 1921.41 292.385 1921.75 292.385 1922.25V1925.12H289.514C289.016 1925.12 288.684 1925.46 288.684 1925.95Z" fill="black"/>
</g>
<g id="Group_3">
<path id="Vector_5" d="M319.895 1938.66C326.858 1938.66 332.619 1932.9 332.619 1925.95C332.619 1918.99 326.848 1913.22 319.885 1913.22C312.932 1913.22 307.18 1918.99 307.18 1925.95C307.18 1932.9 312.942 1938.66 319.895 1938.66ZM319.895 1936.85C313.86 1936.85 309.006 1931.98 309.006 1925.95C309.006 1919.9 313.85 1915.05 319.885 1915.05C325.93 1915.05 330.793 1919.9 330.793 1925.95C330.793 1931.98 325.94 1936.85 319.895 1936.85ZM314.123 1925.95C314.123 1926.47 314.494 1926.83 315.041 1926.83H318.987V1930.78C318.987 1931.32 319.358 1931.7 319.875 1931.7C320.412 1931.7 320.783 1931.33 320.783 1930.78V1926.83H324.739C325.276 1926.83 325.657 1926.47 325.657 1925.95C325.657 1925.4 325.285 1925.03 324.739 1925.03H320.783V1921.09C320.783 1920.54 320.412 1920.16 319.875 1920.16C319.358 1920.16 318.987 1920.54 318.987 1921.09V1925.03H315.041C314.494 1925.03 314.123 1925.4 314.123 1925.95Z" fill="black"/>
</g>
<text id="Design Variations" fill="black" xml:space="preserve" style="white-space: pre" font-family="Inter" font-size="13" font-weight="bold" letter-spacing="0em"><tspan x="263" y="1952.73">Design Variations</tspan></text>
<text id="Symbols are supported in up to nine weights and three scales." fill="black" xml:space="preserve" style="white-space: pre" font-family="Inter" font-size="13" letter-spacing="0em"><tspan x="263" y="1970.73">Symbols are supported in up to nine weights and three scales.</tspan></text>
<text id="For optimal layout with text and other symbols, vertically align" fill="black" xml:space="preserve" style="white-space: pre" font-family="Inter" font-size="13" letter-spacing="0em"><tspan x="263" y="1988.73">For optimal layout with text and other symbols, vertically align</tspan></text>
<text id="symbols with the adjacent text." fill="black" xml:space="preserve" style="white-space: pre" font-family="Inter" font-size="13" letter-spacing="0em"><tspan x="263" y="2006.73">symbols with the adjacent text.</tspan></text>
<path id="Vector_6" d="M776 1919V1933" stroke="#00AEEF" stroke-width="0.5"/>
<g id="Group_4">
<path id="Vector_7" d="M779.311 1933.16C779.828 1933.16 780.082 1932.96 780.268 1932.41L781.527 1928.97H787.289L788.549 1932.41C788.734 1932.96 788.988 1933.16 789.496 1933.16C790.014 1933.16 790.346 1932.84 790.346 1932.36C790.346 1932.19 790.316 1932.03 790.238 1931.83L785.658 1919.63C785.434 1919.04 785.033 1918.73 784.408 1918.73C783.803 1918.73 783.393 1919.03 783.178 1919.62L778.598 1931.84C778.52 1932.04 778.49 1932.2 778.49 1932.37C778.49 1932.85 778.803 1933.16 779.311 1933.16ZM782.006 1927.48L784.379 1920.91H784.428L786.801 1927.48H782.006Z" fill="black"/>
</g>
<path id="Vector_8" d="M792.836 1919V1933" stroke="#00AEEF" stroke-width="0.5"/>
<text id="Margins" fill="black" xml:space="preserve" style="white-space: pre" font-family="Inter" font-size="13" font-weight="bold" letter-spacing="0em"><tspan x="776" y="1952.73">Margins</tspan></text>
<text id="Leading and trailing margins on the left and right side of each symbol" fill="black" xml:space="preserve" style="white-space: pre" font-family="Inter" font-size="13" letter-spacing="0em"><tspan x="776" y="1970.73">Leading and trailing margins on the left and right side of each symbol</tspan></text>
<text id="can be adjusted by modifying the x-location of the margin guidelines." fill="black" xml:space="preserve" style="white-space: pre" font-family="Inter" font-size="13" letter-spacing="0em"><tspan x="776" y="1988.73">can be adjusted by modifying the x-location of the margin guidelines.</tspan></text>
<text id="Modifications are automatically applied proportionally to all" fill="black" xml:space="preserve" style="white-space: pre" font-family="Inter" font-size="13" letter-spacing="0em"><tspan x="776" y="2006.73">Modifications are automatically applied proportionally to all</tspan></text>
<text id="scales and weights." fill="black" xml:space="preserve" style="white-space: pre" font-family="Inter" font-size="13" letter-spacing="0em"><tspan x="776" y="2024.73">scales and weights.</tspan></text>
<g id="Group_5">
<path id="Vector_9" d="M1291.84 1934.87L1293.54 1936.57C1294.4 1937.44 1295.39 1937.38 1296.31 1936.36L1307.01 1924.57L1306.04 1923.6L1295.43 1935.28C1295.07 1935.68 1294.74 1935.77 1294.27 1935.3L1293.1 1934.14C1292.63 1933.68 1292.74 1933.34 1293.14 1932.98L1304.62 1922.18L1303.64 1921.21L1292.05 1932.1C1291.06 1933.02 1290.98 1934 1291.84 1934.87ZM1298.26 1916.67C1297.84 1917.08 1297.81 1917.66 1298.04 1918.05C1298.28 1918.41 1298.74 1918.64 1299.38 1918.48C1300.85 1918.14 1302.37 1918.08 1303.79 1919.02L1303.21 1920.47C1302.87 1921.3 1303.04 1921.89 1303.58 1922.43L1305.87 1924.75C1306.36 1925.24 1306.77 1925.26 1307.34 1925.16L1308.4 1924.96L1309.07 1925.64L1309.03 1926.19C1308.99 1926.69 1309.12 1927.07 1309.61 1927.55L1310.37 1928.29C1310.85 1928.77 1311.46 1928.8 1311.93 1928.33L1314.84 1925.41C1315.31 1924.94 1315.29 1924.35 1314.81 1923.87L1314.04 1923.11C1313.56 1922.63 1313.19 1922.47 1312.71 1922.51L1312.13 1922.56L1311.49 1921.93L1311.73 1920.8C1311.86 1920.24 1311.71 1919.8 1311.12 1919.21L1308.92 1917.02C1305.58 1913.7 1301.15 1913.78 1298.26 1916.67ZM1299.75 1917.04C1302.18 1915.27 1305.47 1915.57 1307.7 1917.8L1310.13 1920.21C1310.37 1920.44 1310.41 1920.63 1310.34 1920.97L1310.02 1922.45L1311.52 1923.94L1312.51 1923.88C1312.76 1923.87 1312.84 1923.89 1313.03 1924.08L1313.61 1924.66L1311.17 1927.1L1310.59 1926.53C1310.4 1926.33 1310.37 1926.25 1310.38 1925.99L1310.45 1925.01L1308.95 1923.53L1307.43 1923.78C1307.11 1923.85 1306.96 1923.82 1306.71 1923.59L1304.71 1921.58C1304.46 1921.35 1304.43 1921.18 1304.59 1920.81L1305.46 1918.72C1303.9 1917.27 1301.87 1916.64 1299.84 1917.24C1299.68 1917.28 1299.62 1917.15 1299.75 1917.04Z" fill="black"/>
</g>
<text id="Exporting" fill="black" xml:space="preserve" style="white-space: pre" font-family="Inter" font-size="13" font-weight="bold" letter-spacing="0em"><tspan x="1289" y="1952.73">Exporting</tspan></text>
<text id="Symbols should be outlined when exporting to ensure the" fill="black" xml:space="preserve" style="white-space: pre" font-family="Inter" font-size="13" letter-spacing="0em"><tspan x="1289" y="1970.73">Symbols should be outlined when exporting to ensure the</tspan></text>
<text id="design is preserved when submitting to Xcode." fill="black" xml:space="preserve" style="white-space: pre" font-family="Inter" font-size="13" letter-spacing="0em"><tspan x="1289" y="1988.73">design is preserved when submitting to Xcode.</tspan></text>
<text id="template-version" fill="black" xml:space="preserve" style="white-space: pre" font-family="Inter" font-size="13" letter-spacing="0em"><tspan x="2946" y="1932.73">Template v.5.0</tspan></text>
<text id="Requires Xcode 15 or greater" fill="black" xml:space="preserve" style="white-space: pre" font-family="Inter" font-size="13" letter-spacing="0em"><tspan x="2858" y="1950.73">Requires Xcode 15 or greater</tspan></text>
<text id="descriptive-name" fill="black" xml:space="preserve" style="white-space: pre" font-family="Inter" font-size="13" letter-spacing="0em"><tspan x="2885" y="1968.73">Generated from heart.fill</tspan></text>
<text id="Typeset at 100.0 points" fill="black" xml:space="preserve" style="white-space: pre" font-family="Inter" font-size="13" letter-spacing="0em"><tspan x="2892" y="1986.73">Typeset at 100.0 points</tspan></text>
<text id="Small" fill="black" xml:space="preserve" style="white-space: pre" font-family="Inter" font-size="13" letter-spacing="0em"><tspan x="263" y="725.727">Small</tspan></text>
<text id="Medium_2" fill="black" xml:space="preserve" style="white-space: pre" font-family="Inter" font-size="13" letter-spacing="0em"><tspan x="263" y="1155.73">Medium</tspan></text>
<text id="Large" fill="black" xml:space="preserve" style="white-space: pre" font-family="Inter" font-size="13" letter-spacing="0em"><tspan x="263" y="1585.73">Large</tspan></text>
</g>
<g id="Guides">
<g id="H-reference">
<path id="Vector_10" d="M339.994 696H342.638L368.328 628.868H369.03V625.541H367.123L339.994 696ZM350.688 671.52H385.981L385.231 669.272H351.438L350.688 671.52ZM394.12 696H396.764L369.638 625.541H368.433V628.868L394.12 696Z" fill="#27AAE1"/>
</g>
<path id="Baseline-S" d="M263 696H3036" stroke="#27AAE1" stroke-width="0.5"/>
<path id="Capline-S" d="M263 625.541H3036" stroke="#27AAE1" stroke-width="0.5"/>
<g id="H-reference_2">
<path id="Vector_11" d="M339.994 1126H342.638L368.328 1058.87H369.03V1055.54H367.123L339.994 1126ZM350.688 1101.52H385.981L385.231 1099.27H351.438L350.688 1101.52ZM394.12 1126H396.764L369.638 1055.54H368.433V1058.87L394.12 1126Z" fill="#27AAE1"/>
</g>
<path id="Baseline-M" d="M263 1126H3036" stroke="#27AAE1" stroke-width="0.5"/>
<path id="Capline-M" d="M263 1055.54H3036" stroke="#27AAE1" stroke-width="0.5"/>
<g id="H-reference_3">
<path id="Vector_12" d="M339.994 1556H342.638L368.328 1488.87H369.03V1485.54H367.123L339.994 1556ZM350.688 1531.52H385.981L385.231 1529.27H351.438L350.688 1531.52ZM394.12 1556H396.764L369.638 1485.54H368.433V1488.87L394.12 1556Z" fill="#27AAE1"/>
</g>
<path id="Baseline-L" d="M263 1556H3036" stroke="#27AAE1" stroke-width="0.5"/>
<path id="Capline-L" d="M263 1485.54H3036" stroke="#27AAE1" stroke-width="0.5"/>
<path id="left-margin-Ultralight-S" d="M513.924 600.785V720.121" stroke="#00AEEF" stroke-width="0.5"/>
<path id="right-margin-Ultralight-S" d="M605.498 600.785V720.121" stroke="#00AEEF" stroke-width="0.5"/>
<path id="left-margin-Regular-S" d="M1401.65 600.785V720.121" stroke="#00AEEF" stroke-width="0.5"/>
<path id="right-margin-Regular-S" d="M1498.04 600.785V720.121" stroke="#00AEEF" stroke-width="0.5"/>
<path id="left-margin-Black-S" d="M2881.74 600.785V720.121" stroke="#00AEEF" stroke-width="0.5"/>
<path id="right-margin-Black-S" d="M2985.06 600.785V720.121" stroke="#00AEEF" stroke-width="0.5"/>
</g>
<g id="Symbols">
<g id="Black-S">
<g id="Group_6">
<path id="Vector_13" d="M2933.35 626C2933.83 626 2934.31 626 2934.8 626C2934.98 626.05 2935.16 626.009 2935.34 626.022C2935.52 626.022 2935.7 626.022 2935.88 626.022C2937.79 626.014 2939.67 626.227 2941.54 626.591C2943.41 626.957 2945.25 627.451 2947.05 628.089C2948.2 628.496 2949.32 628.963 2950.43 629.475C2952.39 630.384 2954.25 631.463 2956.03 632.69C2956.98 633.351 2957.91 634.06 2958.8 634.807C2959.86 635.689 2960.87 636.619 2961.82 637.609C2962.52 638.34 2963.19 639.097 2963.84 639.878C2964.77 641.014 2965.64 642.201 2966.44 643.438C2967.04 644.36 2967.59 645.304 2968.11 646.271C2968.91 647.764 2969.59 649.307 2970.18 650.891C2970.8 652.531 2971.28 654.211 2971.66 655.922C2971.87 656.883 2972.05 657.85 2972.18 658.823C2972.29 659.616 2972.39 660.413 2972.4 661.218C2972.41 661.885 2972.45 662.552 2972.44 663.221C2972.44 663.872 2972.44 664.522 2972.44 665.172C2972.46 666.125 2972.43 667.079 2972.36 668.029C2972.29 669.038 2972.13 670.039 2971.95 671.036C2971.6 672.992 2971.09 674.908 2970.44 676.784C2970.02 678.012 2969.52 679.213 2968.97 680.392C2968.15 682.162 2967.19 683.851 2966.11 685.471C2965.22 686.802 2964.25 688.07 2963.2 689.281C2962.35 690.272 2961.44 691.212 2960.49 692.109C2959.27 693.264 2957.97 694.335 2956.6 695.313C2956.26 695.553 2955.93 695.794 2955.58 696.02C2955.48 696.087 2955.37 696.203 2955.24 696.134C2955.09 696.063 2955.13 695.911 2955.13 695.789C2955.13 694.467 2955.14 693.143 2955.13 691.821C2955.1 690.056 2954.85 688.323 2954.38 686.62C2954.03 685.333 2953.55 684.091 2952.96 682.899C2952.22 681.409 2951.31 680.02 2950.23 678.749C2949.76 678.193 2949.28 677.646 2948.75 677.145C2947.46 675.929 2946.06 674.867 2944.51 673.992C2943.35 673.331 2942.13 672.789 2940.85 672.366C2939.42 671.889 2937.95 671.565 2936.44 671.41C2935.91 671.357 2935.39 671.365 2934.87 671.288C2934.62 671.252 2934.57 671.199 2934.56 670.956C2934.56 670.024 2934.56 669.092 2934.56 668.16C2934.57 667.92 2934.64 667.848 2934.88 667.842C2936.16 667.81 2937.41 667.566 2938.64 667.181C2939.75 666.829 2940.81 666.341 2941.8 665.728C2942.96 665.019 2943.99 664.159 2944.9 663.165C2945.59 662.417 2946.19 661.6 2946.7 660.72C2947.4 659.503 2947.94 658.216 2948.27 656.847C2948.47 656 2948.59 655.14 2948.64 654.268C2948.77 652.328 2948.48 650.45 2947.84 648.624C2947.28 647.036 2946.47 645.589 2945.4 644.29C2943.98 642.577 2942.27 641.247 2940.25 640.32C2938.89 639.698 2937.47 639.307 2935.99 639.122C2935.41 639.049 2934.82 639.001 2934.24 639.008C2933.25 639.02 2932.25 639.111 2931.27 639.322C2930.03 639.59 2928.84 639.996 2927.71 640.578C2926.54 641.179 2925.48 641.924 2924.5 642.81C2923.05 644.135 2921.93 645.697 2921.11 647.479C2920.48 648.861 2920.08 650.311 2919.91 651.825C2919.82 652.651 2919.81 653.476 2919.84 654.299C2919.9 655.389 2920.09 656.459 2920.4 657.509C2920.96 659.398 2921.87 661.107 2923.12 662.628C2924.3 664.066 2925.73 665.217 2927.36 666.112C2928.92 666.967 2930.58 667.498 2932.34 667.738C2932.77 667.796 2934.44 667.845 2934.88 667.842C2935.28 667.84 2934.7 667.984 2934.71 668.388C2934.71 669.23 2934.85 670.017 2934.85 670.859C2934.84 671.23 2935.25 671.273 2934.88 671.289C2933.17 671.367 2930.33 671.59 2928.68 672.049C2927.66 672.332 2926.67 672.69 2925.71 673.118C2924.16 673.808 2922.72 674.688 2921.38 675.731C2920.42 676.476 2919.55 677.308 2918.73 678.203C2918.09 678.909 2917.5 679.662 2916.96 680.448C2916.57 681.018 2916.22 681.61 2915.88 682.217C2915.3 683.282 2914.82 684.39 2914.44 685.539C2914.06 686.673 2913.77 687.831 2913.6 689.016C2913.47 689.908 2913.41 690.803 2913.37 691.704C2913.31 693.027 2913.36 694.348 2913.33 695.67C2913.33 695.82 2913.4 696.012 2913.22 696.1C2913.05 696.184 2912.93 696.031 2912.8 695.945C2911.7 695.192 2910.63 694.391 2909.6 693.527C2908.64 692.712 2907.7 691.87 2906.83 690.962C2905.39 689.468 2904.05 687.883 2902.86 686.181C2901.96 684.887 2901.14 683.544 2900.39 682.15C2899.56 680.597 2898.85 678.992 2898.25 677.339C2897.5 675.31 2896.94 673.233 2896.55 671.107C2896.35 670 2896.18 668.886 2896.1 667.764C2896.06 667.227 2896.04 666.686 2896.05 666.146C2896.05 665.795 2896.04 665.445 2896 665.097C2896 664.511 2896 663.925 2896 663.338C2896.04 662.991 2896.05 662.644 2896.05 662.296C2896.04 660.693 2896.24 659.109 2896.51 657.532C2896.87 655.433 2897.42 653.381 2898.13 651.374C2898.55 650.185 2899.04 649.021 2899.57 647.876C2900.42 646.077 2901.41 644.361 2902.52 642.716C2903.35 641.49 2904.26 640.326 2905.22 639.198C2906.13 638.121 2907.14 637.127 2908.16 636.15C2909.02 635.318 2909.95 634.557 2910.9 633.823C2912.21 632.812 2913.59 631.893 2915.01 631.061C2916.48 630.21 2917.99 629.459 2919.55 628.809C2921.44 628.023 2923.39 627.393 2925.38 626.923C2926.81 626.586 2928.26 626.331 2929.72 626.159C2930.43 626.076 2931.14 626.06 2931.85 626.036C2932.12 626.028 2932.39 626.019 2932.66 626.018C2932.89 626.01 2933.12 626.048 2933.35 626Z" fill="#B1B2B4"/>
<path id="Vector_14" d="M2972.42 663.159C2972.44 663.158 2972.45 663.159 2972.46 663.161C2972.46 663.852 2972.46 664.544 2972.46 665.236C2972.45 665.238 2972.44 665.239 2972.42 665.238C2972.42 664.545 2972.42 663.851 2972.42 663.159Z" fill="#EAEAEA"/>
<path id="Vector_15" d="M2896.09 666.183C2896.01 666.074 2896.08 665.93 2896 665.822C2896 665.582 2896 665.341 2896 665.101C2896.08 665.306 2896.05 665.526 2896.08 665.738C2896.11 665.883 2896.09 666.035 2896.09 666.183Z" fill="#E3E4E5"/>
<path id="Vector_16" d="M2896 662.666C2896.09 662.542 2896.01 662.385 2896.09 662.259C2896.12 662.595 2896.05 662.927 2896.04 663.261C2896.03 663.288 2896.01 663.315 2896 663.342C2896 663.118 2896 662.892 2896 662.666Z" fill="#DEDEDF"/>
<path id="Vector_17" d="M2932.63 626.039C2932.63 626.026 2932.63 626.013 2932.63 626C2932.87 626 2933.11 626 2933.35 626C2933.11 626.08 2932.87 626.038 2932.63 626.039Z" fill="#E2E3E3"/>
<path id="Vector_18" d="M2935.92 626C2935.92 626.013 2935.92 626.027 2935.92 626.04C2935.73 626.041 2935.54 626.041 2935.34 626.042C2935.31 626.032 2935.3 626.018 2935.34 626C2935.53 626 2935.73 626 2935.92 626Z" fill="#E7E8E8"/>
<path id="Vector_19" d="M2935.34 626C2935.34 626.014 2935.34 626.028 2935.34 626.042C2935.16 626.032 2934.97 626.088 2934.79 626C2934.97 626 2935.16 626 2935.34 626Z" fill="#C0C1C2"/>
</g>
</g>
<g id="Regular-S">
<g id="Group_7">
<path id="Vector_20" d="M1448.52 621C1449.06 621 1449.59 621 1450.13 621C1450.33 621.056 1450.53 621.01 1450.73 621.025C1450.93 621.025 1451.13 621.025 1451.33 621.025C1453.45 621.016 1455.54 621.252 1457.62 621.657C1459.71 622.064 1461.75 622.613 1463.75 623.322C1465.03 623.774 1466.28 624.294 1467.5 624.863C1469.68 625.874 1471.75 627.073 1473.73 628.437C1474.79 629.172 1475.82 629.96 1476.81 630.79C1477.99 631.771 1479.11 632.805 1480.17 633.906C1480.95 634.717 1481.69 635.559 1482.41 636.428C1483.45 637.691 1484.42 639.01 1485.31 640.385C1485.97 641.41 1486.58 642.46 1487.16 643.535C1488.05 645.194 1488.81 646.91 1489.47 648.67C1490.15 650.494 1490.69 652.361 1491.11 654.263C1491.34 655.331 1491.54 656.406 1491.69 657.488C1491.81 658.37 1491.92 659.255 1491.93 660.15C1491.95 660.892 1491.98 661.634 1491.98 662.377C1491.98 663.101 1491.98 663.823 1491.98 664.546C1491.99 665.606 1491.96 666.666 1491.89 667.722C1491.81 668.843 1491.63 669.957 1491.43 671.065C1491.04 673.239 1490.48 675.369 1489.76 677.455C1489.28 678.82 1488.73 680.154 1488.12 681.466C1487.21 683.433 1486.14 685.311 1484.94 687.112C1483.95 688.592 1482.87 690 1481.71 691.347C1480.75 692.448 1479.74 693.493 1478.69 694.491C1477.33 695.775 1475.89 696.965 1474.36 698.053C1473.99 698.319 1473.62 698.587 1473.23 698.839C1473.12 698.913 1473 699.042 1472.85 698.965C1472.69 698.887 1472.74 698.718 1472.74 698.582C1472.73 697.112 1472.75 695.64 1472.73 694.17C1472.7 692.209 1472.42 690.282 1471.9 688.389C1471.51 686.959 1470.98 685.578 1470.32 684.253C1469.49 682.596 1468.49 681.052 1467.29 679.639C1466.76 679.021 1466.23 678.413 1465.64 677.856C1464.21 676.504 1462.65 675.323 1460.93 674.351C1459.63 673.616 1458.28 673.013 1456.86 672.544C1455.27 672.013 1453.63 671.653 1451.95 671.481C1451.37 671.422 1450.79 671.43 1450.21 671.345C1449.93 671.305 1449.87 671.246 1449.87 670.976C1449.86 669.94 1449.86 668.903 1449.87 667.868C1449.87 667.601 1449.95 667.52 1450.22 667.514C1451.65 667.479 1453.04 667.207 1454.4 666.779C1455.64 666.388 1456.81 665.845 1457.92 665.164C1459.2 664.376 1460.34 663.42 1461.36 662.315C1462.13 661.483 1462.79 660.575 1463.36 659.596C1464.14 658.244 1464.74 656.814 1465.1 655.292C1465.33 654.349 1465.46 653.394 1465.52 652.424C1465.66 650.268 1465.35 648.18 1464.63 646.15C1464.01 644.385 1463.1 642.776 1461.91 641.332C1460.34 639.428 1458.43 637.95 1456.19 636.919C1454.68 636.228 1453.1 635.792 1451.46 635.587C1450.81 635.506 1450.16 635.452 1449.51 635.461C1448.4 635.474 1447.3 635.575 1446.21 635.81C1444.83 636.108 1443.5 636.559 1442.25 637.206C1440.95 637.874 1439.77 638.702 1438.68 639.687C1437.07 641.16 1435.82 642.896 1434.91 644.878C1434.21 646.414 1433.77 648.025 1433.58 649.709C1433.48 650.626 1433.46 651.544 1433.51 652.459C1433.56 653.67 1433.78 654.861 1434.13 656.027C1434.75 658.127 1435.76 660.027 1437.15 661.718C1438.46 663.316 1440.04 664.596 1441.86 665.591C1443.59 666.542 1445.44 667.132 1447.4 667.398C1447.88 667.463 1449.73 667.517 1450.22 667.514C1450.67 667.512 1450.03 667.672 1450.03 668.121C1450.03 669.057 1450.19 669.932 1450.18 670.868C1450.18 671.281 1450.63 671.328 1450.22 671.347C1448.32 671.433 1445.16 671.681 1443.32 672.191C1442.2 672.505 1441.1 672.903 1440.03 673.379C1438.3 674.146 1436.7 675.125 1435.21 676.284C1434.15 677.113 1433.18 678.037 1432.27 679.033C1431.56 679.817 1430.91 680.654 1430.3 681.528C1429.87 682.162 1429.47 682.82 1429.11 683.495C1428.46 684.678 1427.92 685.91 1427.5 687.187C1427.08 688.447 1426.76 689.735 1426.57 691.053C1426.42 692.044 1426.35 693.039 1426.31 694.041C1426.25 695.511 1426.3 696.98 1426.27 698.449C1426.27 698.616 1426.34 698.83 1426.14 698.927C1425.96 699.021 1425.82 698.85 1425.68 698.755C1424.45 697.918 1423.26 697.028 1422.12 696.068C1421.05 695.161 1420.01 694.225 1419.03 693.215C1417.43 691.555 1415.95 689.793 1414.63 687.901C1413.63 686.462 1412.71 684.969 1411.88 683.42C1410.96 681.693 1410.17 679.909 1409.5 678.072C1408.67 675.817 1408.04 673.507 1407.61 671.144C1407.39 669.913 1407.2 668.674 1407.11 667.427C1407.06 666.83 1407.05 666.229 1407.05 665.628C1407.05 665.239 1407.05 664.85 1407 664.463C1407 663.811 1407 663.16 1407 662.508C1407.05 662.122 1407.05 661.735 1407.05 661.349C1407.04 659.566 1407.26 657.806 1407.57 656.053C1407.97 653.719 1408.58 651.438 1409.37 649.207C1409.84 647.885 1410.38 646.591 1410.97 645.319C1411.91 643.318 1413.01 641.412 1414.25 639.583C1415.17 638.22 1416.18 636.926 1417.25 635.672C1418.27 634.475 1419.38 633.37 1420.51 632.283C1421.47 631.358 1422.51 630.512 1423.57 629.696C1425.02 628.572 1426.55 627.551 1428.14 626.626C1429.76 625.68 1431.45 624.845 1433.18 624.123C1435.28 623.249 1437.44 622.549 1439.66 622.026C1441.25 621.651 1442.86 621.368 1444.49 621.177C1445.28 621.085 1446.07 621.066 1446.86 621.04C1447.16 621.031 1447.46 621.021 1447.76 621.02C1448.01 621.011 1448.27 621.054 1448.52 621Z" fill="#B1B2B4"/>
<path id="Vector_21" d="M1491.96 662.307C1491.97 662.306 1491.99 662.307 1492 662.31C1492 663.078 1492 663.848 1492 664.616C1491.99 664.619 1491.97 664.62 1491.96 664.619C1491.96 663.849 1491.96 663.077 1491.96 662.307Z" fill="#EAEAEA"/>
<path id="Vector_22" d="M1407.1 665.67C1407.01 665.549 1407.09 665.388 1407 665.269C1407 665.002 1407 664.734 1407 664.467C1407.09 664.695 1407.05 664.94 1407.09 665.175C1407.12 665.337 1407.1 665.506 1407.1 665.67Z" fill="#E3E4E5"/>
<path id="Vector_23" d="M1407 661.761C1407.1 661.623 1407.01 661.448 1407.1 661.308C1407.13 661.682 1407.05 662.05 1407.04 662.422C1407.04 662.452 1407.01 662.482 1407 662.512C1407 662.262 1407 662.012 1407 661.761Z" fill="#DEDEDF"/>
<path id="Vector_24" d="M1447.72 621.044C1447.72 621.029 1447.72 621.015 1447.72 621C1447.99 621 1448.25 621 1448.52 621C1448.26 621.089 1447.99 621.043 1447.72 621.044Z" fill="#E2E3E3"/>
<path id="Vector_25" d="M1451.38 621C1451.38 621.015 1451.38 621.03 1451.38 621.045C1451.17 621.046 1450.95 621.046 1450.73 621.047C1450.7 621.035 1450.69 621.02 1450.73 621C1450.95 621 1451.16 621 1451.38 621Z" fill="#E7E8E8"/>
<path id="Vector_26" d="M1450.73 621C1450.73 621.016 1450.73 621.031 1450.73 621.047C1450.53 621.035 1450.32 621.097 1450.13 621C1450.33 621 1450.53 621 1450.73 621Z" fill="#C0C1C2"/>
</g>
</g>
<g id="Ultralight-S">
<g id="Group_8">
<path id="Vector_27" d="M558.269 626C558.749 626 559.229 626 559.71 626C559.889 626.05 560.073 626.009 560.253 626.022C560.433 626.022 560.613 626.022 560.793 626.022C562.693 626.014 564.571 626.226 566.435 626.59C568.306 626.955 570.143 627.448 571.939 628.084C573.083 628.49 574.204 628.956 575.306 629.467C577.263 630.375 579.12 631.451 580.894 632.675C581.849 633.335 582.769 634.042 583.66 634.787C584.714 635.668 585.721 636.595 586.672 637.584C587.371 638.312 588.042 639.068 588.686 639.848C589.622 640.981 590.489 642.165 591.285 643.4C591.878 644.319 592.431 645.262 592.947 646.227C593.744 647.715 594.428 649.256 595.019 650.836C595.631 652.472 596.116 654.148 596.493 655.856C596.704 656.814 596.879 657.779 597.015 658.75C597.125 659.542 597.217 660.337 597.232 661.14C597.244 661.806 597.277 662.471 597.272 663.139C597.272 663.788 597.272 664.437 597.272 665.085C597.286 666.036 597.259 666.988 597.193 667.936C597.123 668.942 596.958 669.942 596.78 670.937C596.43 672.888 595.928 674.799 595.278 676.672C594.853 677.897 594.359 679.095 593.813 680.272C592.994 682.037 592.037 683.723 590.958 685.34C590.071 686.668 589.099 687.932 588.053 689.141C587.199 690.129 586.293 691.067 585.346 691.963C584.126 693.115 582.831 694.184 581.463 695.16C581.127 695.399 580.792 695.639 580.448 695.865C580.346 695.932 580.241 696.048 580.104 695.979C579.962 695.908 580.001 695.756 580.001 695.635C579.998 694.315 580.013 692.995 579.996 691.675C579.972 689.914 579.715 688.185 579.249 686.486C578.898 685.202 578.427 683.963 577.834 682.773C577.092 681.286 576.19 679.901 575.111 678.632C574.64 678.078 574.161 677.531 573.633 677.032C572.347 675.818 570.948 674.758 569.406 673.886C568.241 673.226 567.023 672.685 565.754 672.264C564.321 671.787 562.853 671.464 561.347 671.31C560.825 671.257 560.301 671.264 559.781 671.188C559.537 671.152 559.481 671.099 559.479 670.857C559.47 669.927 559.47 668.996 559.479 668.067C559.482 667.828 559.554 667.755 559.791 667.749C561.074 667.718 562.322 667.474 563.541 667.09C564.654 666.739 565.706 666.251 566.701 665.64C567.852 664.933 568.879 664.075 569.792 663.083C570.478 662.336 571.077 661.521 571.586 660.643C572.289 659.428 572.824 658.145 573.15 656.779C573.352 655.933 573.471 655.075 573.527 654.205C573.652 652.27 573.368 650.395 572.727 648.573C572.17 646.99 571.356 645.545 570.286 644.249C568.875 642.541 567.164 641.214 565.15 640.289C563.798 639.668 562.381 639.277 560.904 639.093C560.323 639.02 559.738 638.972 559.158 638.979C558.163 638.992 557.17 639.082 556.192 639.293C554.954 639.56 553.763 639.965 552.639 640.546C551.476 641.146 550.41 641.888 549.438 642.772C547.987 644.095 546.869 645.653 546.054 647.432C545.422 648.811 545.026 650.257 544.857 651.768C544.765 652.592 544.753 653.415 544.791 654.237C544.842 655.324 545.037 656.392 545.348 657.439C545.909 659.324 546.814 661.029 548.062 662.547C549.241 663.982 550.659 665.13 552.287 666.023C553.844 666.877 555.505 667.406 557.259 667.645C557.689 667.704 559.354 667.752 559.791 667.749C560.197 667.748 559.618 667.891 559.619 668.294C559.622 669.134 559.762 669.919 559.759 670.76C559.757 671.13 560.16 671.172 559.791 671.189C558.087 671.266 555.249 671.489 553.603 671.947C552.591 672.229 551.605 672.586 550.644 673.014C549.095 673.702 547.66 674.581 546.324 675.621C545.37 676.365 544.498 677.195 543.683 678.088C543.04 678.792 542.457 679.543 541.917 680.328C541.527 680.896 541.172 681.487 540.841 682.093C540.26 683.155 539.781 684.261 539.397 685.407C539.02 686.538 538.733 687.694 538.562 688.877C538.432 689.766 538.369 690.66 538.331 691.559C538.276 692.878 538.323 694.197 538.295 695.515C538.292 695.665 538.358 695.857 538.183 695.944C538.014 696.029 537.888 695.876 537.763 695.79C536.661 695.039 535.594 694.24 534.574 693.378C533.613 692.565 532.675 691.724 531.801 690.818C530.365 689.327 529.036 687.746 527.849 686.048C526.947 684.756 526.125 683.416 525.383 682.026C524.556 680.476 523.848 678.874 523.242 677.225C522.499 675.201 521.936 673.128 521.549 671.007C521.347 669.903 521.184 668.791 521.099 667.671C521.058 667.135 521.043 666.596 521.046 666.057C521.047 665.707 521.041 665.358 521.001 665.011C521.001 664.425 521.001 663.841 521.001 663.256C521.041 662.91 521.047 662.563 521.046 662.215C521.036 660.616 521.235 659.036 521.507 657.462C521.87 655.367 522.414 653.32 523.125 651.318C523.546 650.131 524.03 648.97 524.565 647.828C525.407 646.032 526.394 644.321 527.504 642.679C528.331 641.456 529.239 640.294 530.197 639.169C531.112 638.094 532.113 637.102 533.128 636.127C533.992 635.297 534.92 634.538 535.869 633.806C537.176 632.797 538.546 631.88 539.972 631.05C541.431 630.201 542.941 629.451 544.501 628.803C546.387 628.018 548.324 627.39 550.313 626.921C551.743 626.584 553.187 626.33 554.646 626.159C555.355 626.076 556.064 626.06 556.775 626.036C557.044 626.028 557.313 626.019 557.583 626.018C557.812 626.01 558.042 626.048 558.269 626Z" fill="#B1B2B4"/>
<path id="Vector_28" d="M597.255 663.076C597.268 663.075 597.28 663.076 597.293 663.078C597.293 663.768 597.293 664.458 597.293 665.148C597.28 665.151 597.268 665.152 597.255 665.151C597.254 664.459 597.255 663.767 597.255 663.076Z" fill="#EAEAEA"/>
<path id="Vector_29" d="M521.086 666.094C521.011 665.985 521.083 665.841 521.001 665.734C521.001 665.494 521.001 665.254 521.001 665.014C521.083 665.218 521.045 665.438 521.081 665.649C521.106 665.794 521.086 665.946 521.086 666.094Z" fill="#E3E4E5"/>
<path id="Vector_30" d="M521.001 662.584C521.086 662.461 521.008 662.303 521.086 662.178C521.119 662.514 521.048 662.844 521.036 663.178C521.035 663.205 521.013 663.232 521 663.259C521.001 663.035 521.001 662.81 521.001 662.584Z" fill="#DEDEDF"/>
<path id="Vector_31" d="M557.546 626.039C557.547 626.026 557.549 626.013 557.549 626C557.789 626 558.029 626 558.269 626C558.032 626.08 557.788 626.038 557.546 626.039Z" fill="#E2E3E3"/>
<path id="Vector_32" d="M560.834 626C560.834 626.013 560.835 626.027 560.836 626.04C560.642 626.041 560.448 626.041 560.254 626.042C560.219 626.032 560.217 626.018 560.249 626C560.444 626 560.639 626 560.834 626Z" fill="#E7E8E8"/>
<path id="Vector_33" d="M560.249 626C560.25 626.014 560.251 626.028 560.253 626.042C560.072 626.032 559.885 626.087 559.709 626C559.889 626 560.069 626 560.249 626Z" fill="#C0C1C2"/>
</g>
</g>
</g>
</g>
<defs>
<clipPath id="clip0_1_12708">
<rect width="3300" height="2200" fill="white"/>
</clipPath>
</defs>
</svg>
